<svg width="166" height="117" viewBox="0 0 166 117" fill="none" xmlns="http://www.w3.org/2000/svg">
<path d="M165.77 58.1519C165.365 57.9779 164.94 57.8306 164.541 57.6299C138.47 44.7169 112.404 31.7771 86.3425 18.8106C85.4512 18.2802 84.4311 18 83.3915 18C82.3518 18 81.3318 18.2802 80.4404 18.8106C71.9926 23.1543 63.4366 27.3106 54.9077 31.5272C36.9494 40.3753 18.9912 49.2168 1.03299 58.0515C0.969967 63.4059 0.911445 68.7469 0.857422 74.0745C27.7205 87.4381 54.5791 100.813 81.4331 114.199C83.0943 115.029 84.3098 114.674 85.782 113.938C95.7898 108.932 105.825 103.992 115.846 99.0058C132.566 90.6887 149.284 82.3582 166 74.0143C165.928 68.7223 165.851 63.4349 165.77 58.1519ZM81.9193 25.7043C82.4042 25.4412 82.9517 25.3122 83.5042 25.3311C84.0567 25.3499 84.5939 25.5158 85.0594 25.8114C109.113 37.7517 133.187 49.6652 157.883 61.8866C153.284 64.1689 149.28 66.1098 145.329 68.1579C144.944 68.3675 144.509 68.4694 144.07 68.4529C143.631 68.4364 143.205 68.3021 142.837 68.0642C118.887 56.1864 94.9344 44.3064 70.9796 32.4241C70.7095 32.2969 70.5474 31.9489 70.203 31.5473C74.1805 29.5729 78.0769 27.6921 81.9193 25.7043ZM66.543 33.3343C67.1305 33.0398 67.5019 33.3343 68.0218 33.6087C92.0937 45.5847 116.161 57.5406 140.224 69.4764C140.393 69.5567 140.494 69.7843 140.899 70.3064C137.266 72.1068 133.836 73.7465 130.473 75.5068C129.998 75.7821 129.456 75.9233 128.906 75.915C128.356 75.9068 127.819 75.7494 127.353 75.4599C103.292 63.5063 79.2114 51.5861 54.4823 39.3178L66.543 33.3343ZM50.6669 41.1919C51.0361 40.9741 51.4595 40.8631 51.8891 40.8714C52.3188 40.8796 52.7375 41.0069 53.0979 41.2387C76.6476 52.9782 100.208 64.6865 123.781 76.3635C124.456 76.6981 125.32 76.8454 125.671 77.856C122.207 79.5761 118.689 81.2561 115.238 83.0632C114.751 83.3254 114.201 83.452 113.647 83.4296C113.093 83.4072 112.555 83.2367 112.091 82.936C88.024 70.989 63.9431 59.0688 39.295 46.8608C43.475 44.786 47.0878 43.0258 50.6669 41.1919V41.1919ZM36.1819 48.7416C39.9905 48.253 43.529 51.6932 47.1418 53.4668C67.3375 63.3992 87.5085 73.3874 107.655 83.4313C108.654 83.9266 109.627 84.462 110.937 85.1447C106.993 87.1057 103.306 88.9195 99.639 90.7802C99.239 90.9689 98.7962 91.0508 98.3544 91.0179C97.9127 90.985 97.4872 90.8385 97.1201 90.5928C73.0618 78.6168 48.9966 66.6475 24.9248 54.6849C24.8302 54.6448 24.783 54.5176 24.5939 54.2633C28.5443 52.2688 32.1977 49.277 36.1819 48.7416ZM81.9126 106.375C80.6498 106.616 79.7246 105.665 78.6914 105.157C56.4946 94.1869 34.3451 83.11 12.0808 72.2607C8.49496 70.5138 6.24623 68.7067 7.98173 64.1555C20.6457 70.4023 33.2871 76.6491 45.9061 82.8959C56.5487 88.1699 67.0967 93.6381 77.8676 98.631C81.5682 100.378 83.1956 102.379 81.9126 106.375ZM81.845 98.0688C57.9533 86.2446 34.0682 74.4203 10.1899 62.596C9.88605 62.4488 9.59569 62.2748 8.96091 61.9267C13.114 59.8452 16.7808 58.0047 20.4409 56.1842C20.7697 56.002 21.142 55.9108 21.5186 55.9202C21.8952 55.9296 22.2624 56.0393 22.5815 56.2377C46.5138 68.2092 70.4664 80.1361 94.4392 92.0184C94.7161 92.1589 94.9659 92.353 95.6007 92.7546C91.6773 94.6956 87.9632 96.4692 84.3301 98.3834C83.3239 98.9055 82.6284 98.4436 81.845 98.0688ZM155.06 72.0331C132.699 83.1167 110.338 94.1981 87.9767 105.277C86.9908 105.766 85.9508 106.208 84.9716 106.669C83.4252 102.185 85.4984 100.358 89.1517 98.5842C111.436 87.7817 133.532 76.6981 155.695 65.7083C156.681 65.2197 157.673 64.7579 158.713 64.2626C159.794 69.6705 159.794 69.6772 155.06 72.0331Z" fill="url(#paint0_linear_712_2277)"/>
<path d="M1.03301 60.4309C0.969984 65.7853 0.911463 71.1263 0.857439 76.4539C-0.11498 71.0995 -0.506652 65.7518 1.03301 60.4309Z" fill="#F6E829"/>
<path d="M119.317 24.068C122.383 42.1993 121.931 43.7989 142.237 46.5899C121.492 49.3206 122.309 51.7769 119.31 69.2523C118.689 65.5377 118.189 62.4857 117.656 59.4471C116.542 53.1155 112.787 49.3741 106.399 48.2832C103.09 47.721 99.7675 47.219 96.2695 46.6568C115.907 43.9729 116.434 42.641 119.317 24.068Z" fill="url(#paint1_linear_712_2277)"/>
<path d="M113.462 16.1569C117.514 15.5277 121.606 14.6911 125.705 14.3698C127.981 14.1891 128.319 13.299 128.494 11.3446C128.83 7.48658 129.614 3.67987 130.831 0C131.398 3.86854 132.148 7.7237 132.451 11.6123C132.614 13.6202 133.275 14.1557 135.207 14.3498C139.348 14.7538 143.444 15.5312 147.443 16.6722C143.695 17.2076 139.961 17.9104 136.193 18.225C133.701 18.4392 132.465 19.0214 132.384 21.8994C132.289 25.3262 131.405 28.733 130.865 32.1464H130.041C129.5 28.4853 128.751 24.8443 128.501 21.1699C128.366 19.1218 127.569 18.5663 125.739 18.3655C121.62 17.9037 117.521 17.2813 113.415 16.7258L113.462 16.1569Z" fill="url(#paint2_linear_712_2277)"/>
<path d="M148.105 45.5591C147.173 37.7484 145.667 36.383 135.274 34.4822C138.793 33.0566 142.318 33.6657 144.85 31.4503C147.382 29.2349 147.551 25.9955 148.503 22.1537C150.111 25.701 149.854 29.3353 152.602 31.4771C155.351 33.6188 158.943 33.3444 162.198 34.6094C155.168 34.8303 149.921 37.0992 149.314 44.93C148.99 45.3048 148.841 45.9808 148.105 45.5591Z" fill="url(#paint3_linear_712_2277)"/>
<path d="M144.39 52.3324C144.661 58.0884 146.74 62.2046 153.649 62.7601C147.922 63.329 144.674 66.0329 144.37 72.0901C143.918 65.0825 139.569 63.1148 133.734 62.8404C136.496 62.0038 139.447 62.2447 141.554 60.1632C143.661 58.0817 143.627 55.1234 144.39 52.3324Z" fill="url(#paint4_linear_712_2277)"/>
<defs>
<linearGradient id="paint0_linear_712_2277" x1="-8.82491" y1="63.0551" x2="156.32" y2="63.0551" gradientUnits="userSpaceOnUse">
<stop offset="0.22" stop-color="#D1E29A"/>
<stop offset="0.45" stop-color="#ABDD96"/>
<stop offset="0.67" stop-color="#8FD993"/>
<stop offset="0.85" stop-color="#7ED791"/>
<stop offset="0.99" stop-color="#78D690"/>
</linearGradient>
<linearGradient id="paint1_linear_712_2277" x1="93.5745" y1="45.1254" x2="139.542" y2="45.1254" gradientUnits="userSpaceOnUse">
<stop offset="0.22" stop-color="#D1E29A"/>
<stop offset="0.45" stop-color="#ABDD96"/>
<stop offset="0.67" stop-color="#8FD993"/>
<stop offset="0.85" stop-color="#7ED791"/>
<stop offset="0.99" stop-color="#78D690"/>
</linearGradient>
<linearGradient id="paint2_linear_712_2277" x1="111.42" y1="14.9813" x2="145.448" y2="14.9813" gradientUnits="userSpaceOnUse">
<stop offset="0.22" stop-color="#D1E29A"/>
<stop offset="0.45" stop-color="#ABDD96"/>
<stop offset="0.67" stop-color="#8FD993"/>
<stop offset="0.85" stop-color="#7ED791"/>
<stop offset="0.99" stop-color="#78D690"/>
</linearGradient>
<linearGradient id="paint3_linear_712_2277" x1="133.696" y1="33.1238" x2="160.62" y2="33.1238" gradientUnits="userSpaceOnUse">
<stop offset="0.22" stop-color="#D1E29A"/>
<stop offset="0.45" stop-color="#ABDD96"/>
<stop offset="0.67" stop-color="#8FD993"/>
<stop offset="0.85" stop-color="#7ED791"/>
<stop offset="0.99" stop-color="#78D690"/>
</linearGradient>
<linearGradient id="paint4_linear_712_2277" x1="132.567" y1="61.5401" x2="152.481" y2="61.5401" gradientUnits="userSpaceOnUse">
<stop offset="0.22" stop-color="#D1E29A"/>
<stop offset="0.45" stop-color="#ABDD96"/>
<stop offset="0.67" stop-color="#8FD993"/>
<stop offset="0.85" stop-color="#7ED791"/>
<stop offset="0.99" stop-color="#78D690"/>
</linearGradient>
</defs>
</svg>
