<svg width="55" height="72" viewBox="0 0 55 72" fill="none" xmlns="http://www.w3.org/2000/svg">
<g clip-path="url(#clip0_299_12777)">
<path d="M14.0642 69.8332L14.0673 69.8336C18.474 70.4503 22.934 70.5166 27.4787 70.4959C27.48 70.4958 27.4814 70.4958 27.4828 70.4958L28.9478 70.4813L28.9586 70.4812C34.3181 70.4666 39.5626 70.2778 44.6989 69.2115C47.1851 68.6938 49.4253 68.0139 51.3394 66.6568L14.0642 69.8332ZM14.0642 69.8332C11.0749 69.4211 8.2615 68.8566 5.68005 67.6242L5.67969 67.624M14.0642 69.8332L5.67969 67.624M5.67969 67.624C3.66695 66.6637 2.28678 65.5375 1.79227 63.723C1.10184 61.1628 1.64399 58.9277 3.43288 56.9497C4.96968 55.257 6.91588 54.0249 9.07199 52.7668C11.9288 51.1022 14.7398 49.5528 17.7231 48.4528C18.4533 48.1898 19.1453 47.8298 19.781 47.3826L19.781 47.3826M5.67969 67.624L19.781 47.3826M19.781 47.3826L19.7919 47.3748M19.781 47.3826L19.7919 47.3748M19.7919 47.3748C21.9277 45.8435 22.5748 43.2934 21.4748 40.9104C21.0664 40.0218 20.4691 39.2556 19.9976 38.6508C19.9234 38.5556 19.8522 38.4643 19.7854 38.3772C17.0576 34.8057 15.1593 30.9416 14.5574 26.5531L14.557 26.5501M19.7919 47.3748L14.557 26.5501M14.557 26.5501C13.9626 22.2818 14.2251 18.3163 16.3397 14.7527L16.3398 14.7526M14.557 26.5501L16.3398 14.7526M16.3398 14.7526C18.4096 11.2633 21.5034 9.4111 25.5365 8.88959C28.3983 8.52145 31.0963 8.76632 33.6088 9.94086L34.243 8.58422M16.3398 14.7526L34.243 8.58422M34.243 8.58422L33.6088 9.94087C37.5861 11.8002 39.7119 15.0757 40.53 19.5062L40.5301 19.5064M34.243 8.58422L40.5301 19.5064M40.5301 19.5064C41.3763 24.086 40.5847 28.4703 38.6894 32.785M40.5301 19.5064L38.6894 32.785M38.6894 32.785C38.1143 32.9025 37.5411 33.0292 36.9699 33.1648C36.0138 32.579 34.909 32.2812 33.7866 32.3103C33.4505 32.3139 33.0764 32.3124 32.6891 32.3109C32.1033 32.3086 31.4871 32.3063 30.926 32.3209C29.4195 32.3498 27.9875 32.9741 26.935 34.0546C25.8815 35.1361 25.2914 36.5886 25.2856 38.0999C25.2798 39.6112 25.8587 41.0682 26.9038 42.1578C27.9494 43.2481 29.3791 43.8839 30.8879 43.923L30.8879 43.923C31.6587 43.9429 32.4314 43.9458 33.1996 43.935C33.2471 44.6648 33.4512 45.3459 33.8132 45.9675C34.3662 46.9174 35.2127 47.6001 36.117 48.1138L36.1188 48.1148C37.1388 48.6923 38.1935 49.1281 39.1864 49.516C39.4155 49.6055 39.6397 49.6918 39.8597 49.7766C40.6201 50.0696 41.3318 50.3438 42.0345 50.665C45.1953 52.1125 48.1276 53.5542 50.6052 55.7259L50.6056 55.7261C53.098 57.9096 53.9148 60.5821 53.3272 63.8841L53.3269 63.8859C53.1323 64.9874 52.4529 65.8648 51.3394 66.6568L38.6894 32.785ZM34.3567 43.9095C34.3568 43.9095 34.3555 43.9095 34.3529 43.9093L34.3567 43.9095Z" stroke="#A6CE39" stroke-width="3"/>
<path d="M2.97071 28.7829C2.97071 27.5861 2.97071 26.3893 2.97071 25.1905C2.97071 23.7911 3.5298 22.6675 4.70778 21.9093C4.83649 21.8341 4.94276 21.7252 5.01538 21.594C5.088 21.4627 5.12429 21.3141 5.12038 21.1637C5.82387 10.5808 13.8057 1.81498 24.1455 0.250626C36.2224 -1.57689 47.5649 6.74614 49.5887 18.9184C49.661 19.3012 49.714 19.6874 49.7475 20.0755C49.8094 21.0112 49.9538 21.8091 50.8636 22.421C51.7734 23.033 52.0168 24.0919 52.0189 25.1884C52.0189 27.6112 52.0416 30.0318 52.0189 32.4546C51.988 35.3202 49.2442 37.1143 46.6427 35.9822C46.3353 35.8465 46.1146 35.7086 45.7535 35.9614C42.9973 37.8766 39.8739 38.7371 36.5979 39.1172C36.1853 39.1632 35.8944 39.2383 35.6303 39.6018C35.445 39.854 35.2024 40.0572 34.923 40.1943C34.6436 40.3314 34.3356 40.3982 34.0253 40.3892C33.0206 40.3892 32.018 40.4101 31.0153 40.3892C30.4572 40.3899 29.9202 40.1736 29.5151 39.7849C29.1101 39.3962 28.868 38.8648 28.8389 38.3006C28.7687 37.0975 29.5197 36.1013 30.7286 35.9509C31.9063 35.835 33.092 35.8287 34.2708 35.9321C34.6298 35.9551 35.0341 36.0512 35.2507 36.3498C35.7211 36.9764 36.3049 36.9158 36.9548 36.8177C39.4923 36.4355 41.906 35.717 44.1134 34.3448C44.526 34.0921 44.7323 33.8707 44.5157 33.3631C44.4367 33.0881 44.4108 32.8002 44.4394 32.5152C44.4394 30.0673 44.4394 27.6195 44.4394 25.1717C44.4394 23.7932 44.9758 22.6925 46.1269 21.9511C46.457 21.7422 46.4818 21.5104 46.4612 21.1825C45.9206 12.7634 39.2138 5.22774 31.0092 3.82629C20.6074 2.05099 11.2414 8.36898 8.89983 18.7409C8.80287 19.1712 8.76161 19.614 8.66464 20.0442C8.44596 21.0238 8.47071 21.8132 9.46921 22.4795C10.28 23.0184 10.5544 24.0271 10.5544 25.0401C10.5544 27.5652 10.5832 30.0924 10.5544 32.6175C10.5234 34.7541 8.88745 36.3269 6.78317 36.3269C6.28714 36.3366 5.79416 36.246 5.33312 36.0605C4.87208 35.8749 4.45224 35.5981 4.09817 35.2463C3.7441 34.8944 3.46292 34.4746 3.2711 34.0114C3.07928 33.5482 2.98067 33.0509 2.98104 32.5486C2.95216 31.2829 2.97071 30.0339 2.97071 28.7829Z" fill="#A6CE39"/>
</g>
<defs>
<clipPath id="clip0_299_12777">
<rect width="55" height="72" fill="white"/>
</clipPath>
</defs>
</svg>
