<svg width="70" height="70" viewBox="0 0 66 70" fill="none" xmlns="http://www.w3.org/2000/svg">
<rect x="14" y="43" width="6" height="6" fill="#A6CE39"/>
<rect x="14" y="32" width="6" height="6" fill="#A6CE39"/>
<rect x="14" y="53" width="6" height="6" fill="#A6CE39"/>
<rect x="25" y="43" width="6" height="6" fill="#A6CE39"/>
<rect x="25" y="32" width="6" height="6" fill="#A6CE39"/>
<rect x="25" y="53" width="6" height="6" fill="#A6CE39"/>
<rect x="36" y="43" width="6" height="6" fill="#A6CE39"/>
<rect x="36" y="32" width="6" height="6" fill="#A6CE39"/>
<rect x="36" y="53" width="6" height="6" fill="#A6CE39"/>
<rect x="47" y="43" width="6" height="6" fill="#A6CE39"/>
<rect x="47" y="32" width="6" height="6" fill="#A6CE39"/>
<rect x="47" y="53" width="6" height="6" fill="#A6CE39"/>
<path d="M63.1303 8.84332C61.8872 7.82649 60.345 7.27993 58.7599 7.29443C56.1557 7.30278 53.5515 7.2805 50.9459 7.30975C50.3505 7.30975 50.1214 7.17742 50.1376 6.50745C50.1861 4.97527 50.1376 3.4431 50.1551 1.91093C50.1669 1.5962 50.0967 1.28399 49.9519 1.00688C49.8071 0.729771 49.593 0.497934 49.3319 0.335576C49.0516 0.138087 48.7245 0.0232211 48.3859 0.00329948C48.0472 -0.0166222 47.7097 0.0591516 47.4095 0.222493C47.1093 0.385835 46.8577 0.630585 46.6819 0.930489C46.506 1.23039 46.4124 1.57414 46.4111 1.92486C46.3653 3.47792 46.3801 5.03517 46.4111 6.58963C46.4192 7.1231 46.2764 7.30696 45.7294 7.30557C36.9975 7.28979 28.2656 7.28979 19.5337 7.30557C18.98 7.30557 18.8601 7.10778 18.8601 6.58266C18.887 5.05049 18.8601 3.51832 18.8722 1.98615C18.8835 1.67141 18.8173 1.35887 18.6799 1.07776C18.5426 0.796655 18.3385 0.556155 18.0868 0.378755C17.4617 -0.0836825 16.7854 -0.110147 16.1104 0.23111C15.3937 0.59326 15.0771 1.24513 15.0676 2.04186C15.0501 3.57403 15.0407 5.10621 15.0676 6.63838C15.0784 7.1635 14.9154 7.30975 14.4156 7.30418C11.9905 7.2805 9.56551 7.29164 7.14048 7.29304C3.31163 7.29304 0.00011803 10.7209 0.00011803 14.6753C0.00011803 30.6424 0.00011803 46.6091 0.00011803 62.5752C-0.00272039 63.0395 0.0456443 63.5026 0.144273 63.9556C0.9607 67.6035 3.87747 69.9923 7.55408 69.9951C16.039 70.0016 24.5239 70.0016 33.0088 69.9951C41.4721 69.9951 49.935 69.9951 58.3975 69.9951C62.8151 69.9951 66 66.687 66 62.1379C66 46.4038 66 30.6694 66 14.9344C66.0067 12.4258 65.0555 10.3811 63.1303 8.84332ZM62.2439 61.8662C62.2439 64.5127 60.7538 66.0533 58.1873 66.0533H7.69554C5.31901 66.0533 3.77373 64.464 3.77238 62.0055C3.77328 50.0388 3.76834 38.066 3.75757 26.0872C3.75757 25.4312 3.89229 25.2264 4.56591 25.2278C14.0585 25.251 23.5516 25.2561 33.0452 25.2431H61.3897C62.2493 25.2431 62.2493 25.2431 62.2493 26.1569C62.2457 38.0605 62.2439 49.9636 62.2439 61.8662Z" fill="#A6CE39"/>
</svg>
