<svg width="283" height="165" viewBox="0 0 283 165" fill="none" xmlns="http://www.w3.org/2000/svg">
<path fill-rule="evenodd" clip-rule="evenodd" d="M276.876 79.9967C279.762 83.6502 281.723 87.8879 282.607 92.3802C282.62 92.444 282.625 92.5114 282.63 92.5791C282.648 92.8144 282.666 93.0527 283 93.1515V135.921C280.949 142.412 276.848 145.293 269.626 145.293C269.29 145.298 268.953 145.307 268.616 145.316C267.535 145.344 266.45 145.372 265.374 145.293C263.603 145.154 262.756 145.771 262.237 147.468C260.118 154.387 255.477 159.315 248.685 162.486C246.892 163.321 244.993 163.596 243.087 163.871C242.618 163.938 242.149 164.006 241.682 164.082H234.792C224.125 162.648 217.738 156.57 214.495 147.113C214.033 145.759 213.28 145.227 211.857 145.328C208.87 145.602 205.876 144.869 203.399 143.257C202.544 142.697 201.778 142.844 200.967 143.368C198.657 144.876 196.083 145.355 193.295 145.355C188.033 145.327 182.77 145.328 177.508 145.33C171.767 145.331 166.026 145.333 160.285 145.297C158.364 145.285 157.436 145.821 156.848 147.665C154.668 154.464 150.117 159.389 143.352 162.497C141.501 163.348 139.554 163.599 137.599 163.851C137.046 163.922 136.492 163.993 135.94 164.078H129.455C122.112 163.342 116.709 159.647 112.511 154.086C111 152.035 109.895 149.739 109.252 147.31C108.818 145.763 107.955 145.293 106.362 145.312C101.758 145.385 97.1666 145.447 92.5829 145.312C87.8816 145.173 84.1571 143.287 81.6403 139.388C81.2504 138.782 81.0849 138.124 80.9205 137.47C80.7909 136.955 80.662 136.443 80.4244 135.96V62.8965C83.0107 63.9359 85.7404 64.6165 88.5301 64.9173V72.9005V132.369C88.5152 132.993 88.6329 133.612 88.876 134.191C89.1191 134.77 89.4827 135.297 89.9448 135.739C90.407 136.181 90.9582 136.529 91.5655 136.763C92.1727 136.997 92.8234 137.112 93.4785 137.101C95.0736 137.108 96.6676 137.103 98.2608 137.097C101.262 137.087 104.261 137.077 107.258 137.148C108.75 137.182 109.28 136.735 109.617 135.378C112.134 125.184 121.974 117.857 133.038 117.834C138.479 117.824 143.765 119.561 148.041 122.763C152.317 125.965 155.333 130.446 156.601 135.482C156.917 136.743 157.359 137.175 158.818 137.175C167.673 137.118 176.526 137.124 185.378 137.129C188 137.131 190.621 137.132 193.242 137.132C196.882 137.132 197.919 136.133 197.919 132.662V83.3365V33.432C197.919 30.4547 196.675 29.1897 193.761 29.1897L138.764 29.062C138.381 26.9402 137.196 23.1698 136.012 21.4914C148.653 21.5085 155.29 21.5053 167.931 21.4914C176.399 21.482 184.867 21.4727 193.336 21.4727C201.267 21.4727 206.021 26.008 206.021 33.5901V49.1438C208.219 48.4021 210.393 48.4272 212.554 48.4522C212.943 48.4567 213.333 48.4612 213.721 48.4612C216.665 48.4587 219.607 48.4657 222.548 48.4727C228.796 48.4876 235.039 48.5025 241.28 48.4265C246.5 48.3609 250.886 50.0848 254.724 53.2974C256.796 55.0372 258.674 56.9757 260.329 59.0823C262.676 62.0696 265.044 65.0428 267.411 68.016C270.582 71.9981 273.753 75.9803 276.876 79.9967ZM124.096 153.769C126.762 155.464 129.897 156.369 133.103 156.369C135.233 156.374 137.343 155.978 139.312 155.204C141.281 154.43 143.07 153.294 144.577 151.861C146.083 150.428 147.277 148.725 148.09 146.851C148.903 144.978 149.319 142.97 149.314 140.943C149.314 137.892 148.363 134.909 146.582 132.372C144.801 129.835 142.269 127.858 139.307 126.69C136.344 125.523 133.085 125.217 129.94 125.813C126.796 126.408 123.907 127.877 121.64 130.034C119.373 132.192 117.829 134.941 117.203 137.933C116.578 140.925 116.899 144.027 118.126 146.846C119.353 149.665 121.43 152.074 124.096 153.769ZM259.037 71.5404C258.917 71.5475 258.797 71.5545 258.679 71.5545C250.852 71.5545 243.03 71.5455 235.213 71.5275C232.17 71.5314 230.35 73.2939 230.35 76.2249V89.723C230.35 92.8469 232.287 94.6672 235.619 94.6672H274.343C273.893 92.0254 272.904 89.7269 271.786 87.4669C269.95 83.7633 267.327 80.5804 264.704 77.3967C263.257 75.6407 261.81 73.8844 260.495 72.0405C260.095 71.4783 259.564 71.5095 259.037 71.5404ZM229.441 153.782C232.111 155.474 235.248 156.374 238.456 156.369C240.583 156.37 242.69 155.971 244.656 155.195C246.621 154.42 248.407 153.283 249.91 151.85C251.413 150.417 252.604 148.716 253.416 146.845C254.227 144.973 254.643 142.967 254.638 140.943C254.638 137.89 253.687 134.907 251.904 132.369C250.122 129.832 247.588 127.855 244.624 126.688C241.661 125.521 238.4 125.217 235.254 125.815C232.109 126.412 229.22 127.884 226.954 130.044C224.688 132.204 223.146 134.955 222.524 137.95C221.902 140.944 222.227 144.046 223.458 146.865C224.69 149.683 226.772 152.091 229.441 153.782ZM269.857 137.094C272.807 137.074 274.894 135.081 274.894 132.25C274.898 129.545 274.896 126.84 274.895 124.134C274.891 117.459 274.887 110.783 274.959 104.1C274.971 102.604 274.513 102.357 273.063 102.357C263.53 102.398 254.006 102.393 244.484 102.388C241.311 102.386 238.139 102.384 234.966 102.384C227.744 102.377 222.265 97.1971 222.236 90.3671C222.22 85.5489 222.22 80.7307 222.236 75.9125C222.261 68.7816 227.464 63.8413 234.995 63.8413H254.002C252.378 61.7545 250.412 59.9302 248.178 58.4382C246.367 57.2118 244.458 56.1628 242.099 56.1628H210.892C210.253 56.1592 209.619 56.2765 209.027 56.5078C208.435 56.7391 207.897 57.0799 207.445 57.5103C206.993 57.9408 206.635 58.4524 206.392 59.0155C206.149 59.5786 206.025 60.182 206.029 60.7907V132.678C206.033 135.304 207.962 137.063 210.771 137.117C211.446 137.074 212.123 137.074 212.797 137.117C214.135 137.329 214.609 136.797 214.913 135.574C216.078 130.853 218.778 126.602 222.628 123.425C226.479 120.249 231.284 118.308 236.36 117.88C246.48 116.985 256.316 122.612 260.718 131.594C261.022 132.217 261.155 132.956 261.287 133.688C261.54 135.09 261.788 136.466 263.226 136.955C264.598 137.418 266.186 137.305 267.773 137.193C268.474 137.143 269.175 137.094 269.857 137.094Z" fill="#A6CE39"/>
<path d="M142.999 28.5593C141.123 20.6412 136.44 13.563 129.723 8.49351C123.006 3.42398 114.656 0.666217 106.053 0.675561C85.3643 0.675561 68.3504 16.7051 68.3302 36.1696C68.3021 43.757 70.8366 51.1558 75.5663 57.2938C80.296 63.4319 86.9752 67.9903 94.6362 70.3087C97.2657 71.0995 99.9805 71.6115 102.73 71.8353C103.868 71.9345 105.025 71.9803 106.191 71.9803C111.847 71.9633 117.428 70.7508 122.522 68.432C127.616 66.1133 132.094 62.7472 135.627 58.5814C139.16 54.4155 141.658 49.5559 142.937 44.3597C144.217 39.1636 144.244 33.7632 143.019 28.5555L142.999 28.5593ZM106.207 64.122C102.327 64.1401 98.4814 63.435 94.8915 62.0471C91.3015 60.6592 88.0377 58.6159 85.2878 56.0346C82.5379 53.4534 80.356 50.3851 78.8676 47.0061C77.3791 43.6271 76.6134 40.0041 76.6145 36.3451C76.5215 21.2086 89.7676 8.6369 105.972 8.48424C116.142 8.38501 125.297 13.3923 130.684 20.9377C132.364 23.2835 133.655 25.8575 134.512 28.5708C135.303 31.0613 135.712 33.646 135.726 36.2459C135.807 51.5274 122.529 64.0724 106.207 64.122ZM109.015 28.5632C109.015 26.0213 108.918 23.3078 108.841 20.8461C108.781 18.7546 108.728 16.8425 108.72 15.3617C108.72 13.7854 107.834 12.816 106.158 12.7435C104.365 12.6672 103.447 13.6786 103.228 15.2853C103.186 15.7754 103.177 16.2675 103.204 16.7585C103.204 18.6439 103.204 20.1667 103.204 21.5712C103.204 24.2428 103.163 26.5327 103.204 30.0936C102.839 30.8438 102.671 31.6659 102.714 32.4904V35.4062C102.601 36.2182 102.356 37.0087 101.986 37.7496C100.177 40.6387 98.4688 43.5889 96.7245 46.5277C95.223 49.0352 95.3363 50.4969 97.1049 51.4358C98.7237 52.3021 100.124 51.5999 101.557 49.1916C101.961 48.5352 102.305 47.852 102.726 47.2147C102.815 47.0811 102.904 46.9513 102.997 46.833C107.643 40.5281 109.473 36.1848 109.04 29.8455C109.024 29.4028 109.024 28.9868 109.015 28.5632V28.5632Z" fill="#A6CE39"/>
<path d="M69.9831 81.7796H17.7098" stroke="#A6CE39" stroke-width="6" stroke-miterlimit="10" stroke-linecap="round"/>
<path d="M64.4807 57.4484L3.95374 57.4484" stroke="#A6CE39" stroke-width="6" stroke-miterlimit="10" stroke-linecap="round"/>
<path d="M53.4758 106.111H3.95374" stroke="#A6CE39" stroke-width="6" stroke-miterlimit="10" stroke-linecap="round"/>
<path d="M69.9832 127.739H31.466" stroke="#A6CE39" stroke-width="6" stroke-miterlimit="10" stroke-linecap="round"/>
</svg>
