<svg width="139" height="104" viewBox="0 0 139 104" fill="none" xmlns="http://www.w3.org/2000/svg">
<path fill-rule="evenodd" clip-rule="evenodd" d="M135.035 50.5086C136.903 52.796 138.173 55.4491 138.745 58.2616C138.754 58.3015 138.757 58.3438 138.76 58.3861C138.772 58.5334 138.784 58.6826 139 58.7445V85.5213C137.672 89.585 135.016 91.3886 130.34 91.3886C130.123 91.392 129.905 91.3975 129.686 91.403C128.986 91.4206 128.284 91.4383 127.587 91.3886C126.441 91.3017 125.892 91.688 125.556 92.7504C124.184 97.082 121.179 100.168 116.781 102.152C115.62 102.676 114.39 102.847 113.156 103.02C112.853 103.062 112.549 103.104 112.246 103.152H107.785C100.878 102.254 96.7423 98.4486 94.6429 92.5282C94.3438 91.6807 93.8557 91.3475 92.9346 91.4103C91.0003 91.5819 89.0619 91.123 87.4578 90.1137C86.9041 89.7636 86.4081 89.8554 85.8833 90.1838C84.3875 91.1278 82.7211 91.4272 80.9157 91.4272C77.5082 91.4099 74.1007 91.4108 70.6932 91.4117C66.976 91.4127 63.2587 91.4137 59.5414 91.391C58.2976 91.3838 57.6966 91.7194 57.3161 92.8735C55.9043 97.1303 52.9573 100.214 48.5775 102.16C47.3789 102.692 46.1182 102.849 44.8524 103.007C44.4942 103.052 44.1355 103.096 43.7778 103.15H39.579C34.824 102.688 31.3259 100.375 28.6072 96.8937C27.6289 95.6096 26.9138 94.1719 26.4973 92.6514C26.2165 91.6832 25.6576 91.3886 24.6263 91.4007C21.6452 91.4465 18.6719 91.4852 15.7039 91.4007C12.6599 91.3137 10.2482 90.1331 8.61856 87.692C8.36611 87.3125 8.25896 86.9006 8.15249 86.4912C8.06859 86.1686 7.98511 85.8477 7.8313 85.5455V39.8027C9.50591 40.4535 11.2734 40.8796 13.0797 41.0679V46.0659V83.2976C13.0701 83.6878 13.1463 84.0759 13.3037 84.4383C13.4611 84.8008 13.6965 85.1303 13.9958 85.407C14.2951 85.6837 14.652 85.9019 15.0452 86.0485C15.4384 86.1951 15.8597 86.2671 16.2839 86.2602C17.3167 86.2644 18.3488 86.261 19.3804 86.2577C21.324 86.2513 23.2657 86.245 25.2062 86.2892C26.1719 86.3109 26.5157 86.0308 26.7335 85.1809C28.3631 78.7994 34.7347 74.2118 41.8989 74.1973C45.4221 74.1911 48.8447 75.2784 51.6133 77.2833C54.3819 79.2882 56.3347 82.0937 57.156 85.2461C57.3607 86.0356 57.6468 86.3061 58.5915 86.3061C64.3252 86.2707 70.0575 86.2741 75.7893 86.2775C77.4868 86.2785 79.1842 86.2795 80.8816 86.2795C83.2381 86.2795 83.9099 85.6541 83.9099 83.4811V52.5996V21.3559C83.9099 19.4919 83.1042 18.6999 81.2174 18.6999L45.6063 18.62C45.3582 17.2916 44.591 14.9311 43.8248 13.8802C52.0099 13.891 56.3071 13.889 64.4922 13.8802C69.9754 13.8744 75.4587 13.8685 80.9419 13.8685C86.0775 13.8685 89.1557 16.708 89.1557 21.4549V31.1926C90.5787 30.7282 91.9866 30.744 93.3858 30.7596C93.6381 30.7624 93.89 30.7652 94.1417 30.7652C96.0476 30.7637 97.9526 30.7681 99.8571 30.7725C103.902 30.7818 107.945 30.7911 111.986 30.7435C115.366 30.7024 118.206 31.7817 120.691 33.793C122.033 34.8823 123.249 36.0959 124.32 37.4148C125.84 39.285 127.373 41.1465 128.906 43.0079C130.959 45.501 133.013 47.9941 135.035 50.5086ZM36.1091 96.6954C37.8353 97.7566 39.8648 98.323 41.9408 98.323C43.3202 98.3259 44.6865 98.0781 45.9615 97.5937C47.2364 97.1094 48.3948 96.3981 49.3702 95.5007C50.3455 94.6033 51.1186 93.5374 51.645 92.3644C52.1714 91.1913 52.4408 89.9341 52.4377 88.665C52.4377 86.7549 51.8221 84.8876 50.6687 83.2993C49.5152 81.7111 47.8759 80.4732 45.9578 79.7422C44.0398 79.0112 41.9292 78.8199 39.893 79.1926C37.8568 79.5653 35.9865 80.4851 34.5184 81.8358C33.0504 83.1865 32.0507 84.9074 31.6457 86.7808C31.2407 88.6543 31.4485 90.5962 32.243 92.361C33.0375 94.1258 34.3829 95.6341 36.1091 96.6954ZM123.484 45.2144C123.406 45.2189 123.329 45.2233 123.252 45.2233C118.184 45.2233 113.119 45.2176 108.058 45.2064C106.087 45.2088 104.909 46.3122 104.909 48.1472V56.598C104.909 58.5537 106.163 59.6934 108.32 59.6934H133.395C133.103 58.0395 132.463 56.6004 131.739 55.1855C130.55 52.8668 128.852 50.8741 127.153 48.8809C126.216 47.7815 125.279 46.682 124.428 45.5275C124.169 45.1755 123.825 45.1951 123.484 45.2144ZM104.321 96.7036C106.049 97.7628 108.08 98.3264 110.157 98.323C111.535 98.3234 112.899 98.0737 114.172 97.5882C115.445 97.1027 116.601 96.3911 117.574 95.494C118.547 94.5968 119.319 93.5319 119.844 92.3601C120.37 91.1883 120.639 89.9326 120.636 88.665C120.636 86.7541 120.02 84.8862 118.865 83.2976C117.711 81.709 116.071 80.4711 114.152 79.7406C112.233 79.0101 110.121 78.8198 108.084 79.1938C106.048 79.5679 104.177 80.4894 102.71 81.8418C101.243 83.1942 100.244 84.9166 99.8415 86.7912C99.4386 88.6658 99.6491 90.6082 100.446 92.3727C101.244 94.1372 102.592 95.6444 104.321 96.7036ZM130.49 86.2554C132.4 86.2433 133.752 84.995 133.752 83.2227C133.754 81.5292 133.753 79.8356 133.752 78.1419C133.749 73.9629 133.747 69.7829 133.794 65.5993C133.801 64.6625 133.505 64.5079 132.565 64.5079C126.393 64.5333 120.226 64.5301 114.061 64.5269C112.006 64.5259 109.952 64.5248 107.898 64.5248C103.221 64.52 99.6736 61.2773 99.6552 57.0012C99.6447 53.9847 99.6447 50.9682 99.6552 47.9517C99.6709 43.4872 103.04 40.3943 107.916 40.3943H120.224C119.172 39.0878 117.899 37.9456 116.453 37.0115C115.28 36.2437 114.044 35.587 112.516 35.587H92.31C91.8958 35.5847 91.4852 35.6582 91.102 35.803C90.7189 35.9478 90.3707 36.1611 90.0778 36.4306C89.7849 36.7001 89.5531 37.0204 89.3957 37.373C89.2383 37.7255 89.1585 38.1033 89.1609 38.4844V83.4907C89.1636 85.135 90.4127 86.236 92.2313 86.2698C92.6682 86.2431 93.1065 86.2431 93.5434 86.2698C94.4094 86.4026 94.7164 86.0694 94.9132 85.304C95.6676 82.3483 97.4158 79.6868 99.909 77.6979C102.402 75.7091 105.514 74.4943 108.801 74.2263C115.353 73.6661 121.722 77.1889 124.572 82.8123C124.769 83.2023 124.856 83.6649 124.941 84.123C125.105 85.0006 125.265 85.8623 126.196 86.1684C127.085 86.4582 128.113 86.3878 129.141 86.3175C129.595 86.2864 130.048 86.2554 130.49 86.2554Z" fill="#A6CE39"/>
<path d="M48.3484 18.3052C47.1339 13.3479 44.1016 8.9165 39.7523 5.74262C35.4029 2.56874 29.9966 0.842188 24.4258 0.848037C11.0298 0.848037 0.0132517 10.8836 0.00014914 23.0697C-0.0180128 27.82 1.62305 32.4522 4.68555 36.295C7.74804 40.1378 12.0729 42.9918 17.0334 44.4432C18.7361 44.9383 20.4939 45.2589 22.2744 45.399C23.0108 45.4611 23.7602 45.4898 24.515 45.4898C28.1776 45.4791 31.791 44.72 35.0894 43.2683C38.3879 41.8166 41.2876 39.7092 43.5753 37.1011C45.8629 34.493 47.4804 31.4505 48.3087 28.1974C49.1369 24.9442 49.155 21.5632 48.3615 18.3028L48.3484 18.3052ZM24.5254 40.5699C22.0132 40.5813 19.5232 40.1398 17.1987 39.2709C14.8742 38.4019 12.7609 37.1227 10.9803 35.5067C9.19971 33.8906 7.78693 31.9697 6.82315 29.8542C5.85937 27.7387 5.36359 25.4704 5.36431 23.1797C5.30404 13.7032 13.881 5.83239 24.3735 5.73681C30.9588 5.67469 36.8864 8.80962 40.3742 13.5335C41.4624 15.0022 42.2983 16.6137 42.8532 18.3124C43.3656 19.8716 43.6304 21.4898 43.6394 23.1175C43.6918 32.6848 35.0939 40.5389 24.5254 40.5699ZM26.3441 18.3076C26.3441 16.7163 26.2812 15.0174 26.2314 13.4762C26.1921 12.1668 26.158 10.9697 26.1528 10.0426C26.1528 9.05574 25.5789 8.44882 24.494 8.40342C23.3331 8.35563 22.7382 8.98883 22.5967 9.99478C22.5692 10.3016 22.5639 10.6097 22.581 10.9171C22.581 12.0975 22.581 13.0509 22.581 13.9302C22.581 15.6028 22.5548 17.0364 22.581 19.2658C22.3445 19.7354 22.2358 20.2502 22.2639 20.7663V22.5919C22.1909 23.1002 22.0318 23.5951 21.7922 24.059C20.6209 25.8678 19.515 27.7148 18.3856 29.5547C17.4134 31.1245 17.4868 32.0397 18.6319 32.6275C19.6801 33.1699 20.5868 32.7302 21.5145 31.2225C21.7765 30.8115 21.9993 30.3838 22.2718 29.9848C22.3295 29.9011 22.3871 29.8199 22.4474 29.7458C25.4557 25.7985 26.6402 23.0793 26.3598 19.1105C26.3493 18.8333 26.3493 18.5728 26.3441 18.3076V18.3076Z" fill="#A6CE39"/>
</svg>
