<svg width="104" height="61" viewBox="0 0 104 61" fill="none" xmlns="http://www.w3.org/2000/svg">
<path fill-rule="evenodd" clip-rule="evenodd" d="M101.2 29.3405C102.249 30.6919 102.962 32.2594 103.283 33.9211C103.288 33.9447 103.29 33.9697 103.292 33.9947C103.298 34.0817 103.305 34.1699 103.426 34.2064V50.0268C102.681 52.4276 101.19 53.4933 98.565 53.4933C98.4429 53.4953 98.3206 53.4985 98.1981 53.5018C97.8049 53.5122 97.4106 53.5226 97.0197 53.4933C96.376 53.4419 96.0681 53.6701 95.8796 54.2978C95.1091 56.857 93.4225 58.6802 90.9535 59.8528C90.302 60.162 89.6115 60.2634 88.9187 60.3652C88.7485 60.3902 88.578 60.4152 88.408 60.4434H85.9038C82.0266 59.9127 79.705 57.6645 78.5265 54.1666C78.3586 53.6659 78.0846 53.469 77.5676 53.5061C76.4817 53.6075 75.3937 53.3363 74.4932 52.74C74.1824 52.5332 73.904 52.5874 73.6094 52.7814C72.7697 53.3392 71.8343 53.5161 70.8208 53.5161C68.908 53.5058 66.9952 53.5064 65.0825 53.5069C62.9958 53.5075 60.9091 53.5081 58.8225 53.4947C58.1242 53.4904 57.7869 53.6887 57.5733 54.3706C56.7807 56.8856 55.1265 58.7073 52.6679 59.857C51.9951 60.1717 51.2874 60.2645 50.5768 60.3577C50.3757 60.3841 50.1744 60.4105 49.9736 60.4419H47.6166C44.9474 60.1695 42.9838 58.8028 41.4576 56.7458C40.9085 55.9871 40.5071 55.1377 40.2733 54.2393C40.1157 53.6673 39.8019 53.4933 39.223 53.5004C37.5495 53.5275 35.8805 53.5503 34.2144 53.5004C32.5057 53.449 31.1519 52.7515 30.2371 51.3092C30.0954 51.085 30.0352 50.8416 29.9755 50.5998C29.9284 50.4092 29.8815 50.2196 29.7952 50.041V23.0152C30.7352 23.3997 31.7274 23.6514 32.7414 23.7627V26.7157V48.7129C32.736 48.9435 32.7787 49.1727 32.8671 49.3869C32.9555 49.6011 33.0876 49.7957 33.2556 49.9592C33.4236 50.1227 33.6239 50.2516 33.8447 50.3382C34.0654 50.4248 34.3019 50.4674 34.54 50.4633C35.1197 50.4658 35.6991 50.4638 36.2782 50.4618C37.3692 50.458 38.4592 50.4543 39.5485 50.4804C40.0906 50.4932 40.2836 50.3278 40.4058 49.8256C41.3206 46.0553 44.8973 43.3448 48.9189 43.3363C50.8966 43.3326 52.8179 43.975 54.372 45.1596C55.9262 46.3441 57.0224 48.0016 57.4834 49.8641C57.5983 50.3306 57.7589 50.4904 58.2892 50.4904C61.5078 50.4695 64.7256 50.4715 67.9431 50.4735C68.896 50.4741 69.8488 50.4747 70.8016 50.4747C72.1245 50.4747 72.5016 50.1052 72.5016 48.8213V30.5759V12.1164C72.5016 11.0152 72.0493 10.5473 70.9902 10.5473L51 10.5C50.8607 9.71516 50.4301 8.32052 50 7.69967C54.5946 7.70602 57.0069 7.70484 61.6015 7.69967C64.6795 7.69621 67.7575 7.69275 70.8355 7.69275C73.7184 7.69275 75.4463 9.37036 75.4463 12.1749V17.9282C76.2451 17.6538 77.0354 17.6631 77.8209 17.6723C77.9625 17.674 78.1039 17.6757 78.2452 17.6757C79.315 17.6748 80.3844 17.6774 81.4535 17.68C83.7244 17.6855 85.9936 17.691 88.2622 17.6628C90.1595 17.6386 91.7534 18.2763 93.1485 19.4646C93.9017 20.1081 94.5844 20.8252 95.1857 21.6044C96.039 22.7094 96.8995 23.8091 97.7601 24.9089C98.9126 26.3819 100.065 27.8549 101.2 29.3405ZM45.6688 56.6286C46.6378 57.2556 47.777 57.5903 48.9424 57.5903C49.7167 57.592 50.4837 57.4455 51.1994 57.1594C51.9151 56.8732 52.5653 56.453 53.1129 55.9227C53.6604 55.3925 54.0943 54.7628 54.3898 54.0698C54.6853 53.3767 54.8365 52.6339 54.8348 51.8841C54.8348 50.7555 54.4892 49.6523 53.8417 48.7139C53.1943 47.7756 52.274 47.0442 51.1973 46.6123C50.1206 46.1804 48.9359 46.0674 47.7929 46.2876C46.6499 46.5078 45.6 47.0512 44.7759 47.8493C43.9518 48.6473 43.3906 49.664 43.1633 50.7709C42.9359 51.8778 43.0526 53.0251 43.4986 54.0678C43.9446 55.1104 44.6998 56.0016 45.6688 56.6286ZM94.7164 26.2126C94.6727 26.2152 94.6291 26.2178 94.5862 26.2178C91.7412 26.2178 88.8981 26.2145 86.057 26.2078C84.9507 26.2092 84.2893 26.8612 84.2893 27.9453V32.9382C84.2893 34.0937 84.9934 34.7671 86.2043 34.7671H100.28C100.116 33.7899 99.7567 32.9397 99.3502 32.1037C98.6827 30.7338 97.7295 29.5564 96.7761 28.3788C96.2502 27.7292 95.7243 27.0796 95.2461 26.3975C95.101 26.1896 94.908 26.2011 94.7164 26.2126ZM83.959 56.6335C84.9294 57.2593 86.0696 57.5923 87.2355 57.5903C88.0088 57.5905 88.7746 57.4429 89.489 57.1561C90.2034 56.8693 90.8524 56.4488 91.3988 55.9188C91.9452 55.3888 92.3782 54.7596 92.6731 54.0672C92.9681 53.3749 93.1191 52.633 93.1175 51.8841C93.1175 50.7551 92.7717 49.6515 92.1238 48.7129C91.4758 47.7743 90.555 47.043 89.4777 46.6114C88.4004 46.1798 87.2151 46.0673 86.0718 46.2883C84.9285 46.5093 83.8786 47.0538 83.055 47.8528C82.2313 48.6518 81.6709 49.6695 81.4447 50.777C81.2186 51.8846 81.3367 53.0322 81.7843 54.0747C82.2318 55.1172 82.9887 56.0077 83.959 56.6335ZM98.649 50.4604C99.7214 50.4533 100.48 49.7158 100.48 48.6687C100.481 47.6681 100.481 46.6675 100.48 45.6668C100.479 43.1978 100.477 40.7282 100.504 38.2564C100.508 37.7029 100.342 37.6116 99.8142 37.6116C96.3492 37.6266 92.8875 37.6247 89.4267 37.6228C88.2735 37.6222 87.1203 37.6216 85.9671 37.6216C83.3421 37.6187 81.3505 35.7029 81.3401 33.1765C81.3343 31.3942 81.3343 29.612 81.3401 27.8298C81.349 25.1921 83.2404 23.3647 85.9774 23.3647H92.8862C92.296 22.5928 91.5812 21.918 90.7694 21.3661C90.1109 20.9125 89.4171 20.5245 88.5598 20.5245H77.217C76.9844 20.5232 76.754 20.5665 76.5389 20.6521C76.3238 20.7376 76.1284 20.8637 75.9639 21.0229C75.7995 21.1821 75.6694 21.3714 75.581 21.5797C75.4927 21.788 75.4479 22.0112 75.4492 22.2363V48.827C75.4507 49.7985 76.1519 50.449 77.1728 50.469C77.418 50.4532 77.6641 50.4532 77.9093 50.469C78.3954 50.5474 78.5678 50.3506 78.6783 49.8984C79.1017 48.1521 80.0831 46.5796 81.4826 45.4045C82.8822 44.2295 84.6288 43.5117 86.4739 43.3534C90.1522 43.0224 93.7274 45.1038 95.3272 48.4262C95.4378 48.6566 95.4863 48.9299 95.5342 49.2006C95.6261 49.7191 95.7164 50.2282 96.239 50.4091C96.7376 50.5803 97.3149 50.5387 97.8917 50.4971C98.1465 50.4788 98.4012 50.4604 98.649 50.4604Z" fill="#A6CE39"/>
<path d="M52.5394 10.3141C51.8576 7.3852 50.1554 4.76703 47.7139 2.89183C45.2725 1.01663 42.2376 -0.0034474 39.1105 8.75353e-06C31.5907 8.75353e-06 25.4066 5.92926 25.3993 13.1291C25.3891 15.9356 26.3103 18.6724 28.0294 20.9428C29.7485 23.2133 32.1762 24.8994 34.9608 25.757C35.9166 26.0495 36.9034 26.2389 37.9028 26.3217C38.3162 26.3584 38.7369 26.3753 39.1605 26.3753C41.2165 26.369 43.2449 25.9205 45.0965 25.0628C46.9481 24.2051 48.5758 22.96 49.86 21.4191C51.1442 19.8782 52.0521 18.0806 52.517 16.1586C52.982 14.2366 52.9921 12.239 52.5467 10.3127L52.5394 10.3141ZM39.1664 23.4686C37.7562 23.4753 36.3585 23.2144 35.0536 22.701C33.7487 22.1877 32.5624 21.4319 31.5629 20.4771C30.5634 19.5223 29.7703 18.3873 29.2293 17.1375C28.6883 15.8876 28.41 14.5474 28.4104 13.194C28.3766 7.5951 33.1912 2.94487 39.0811 2.8884C42.7778 2.8517 46.1052 4.70388 48.0631 7.49487C48.6739 8.36259 49.1432 9.3147 49.4547 10.3183C49.7423 11.2396 49.8909 12.1956 49.896 13.1573C49.9254 18.8099 45.099 23.4502 39.1664 23.4686ZM40.1873 10.3155C40.1873 9.37529 40.152 8.37155 40.1241 7.46099C40.102 6.68736 40.0829 5.98009 40.0799 5.43234C40.0799 4.84929 39.7578 4.49071 39.1488 4.46389C38.4971 4.43565 38.1632 4.80976 38.0838 5.4041C38.0683 5.58536 38.0653 5.7674 38.0749 5.94903C38.0749 6.64642 38.0749 7.2097 38.0749 7.72921C38.0749 8.71742 38.0602 9.56446 38.0749 10.8816C37.9422 11.1591 37.8811 11.4632 37.8969 11.7682V12.8467C37.8559 13.1471 37.7666 13.4395 37.6322 13.7135C36.9746 14.7822 36.3539 15.8735 35.7199 16.9605C35.1741 17.888 35.2153 18.4287 35.8581 18.776C36.4465 19.0964 36.9555 18.8367 37.4762 17.9459C37.6233 17.7031 37.7484 17.4504 37.9014 17.2146C37.9337 17.1652 37.9661 17.1172 37.9999 17.0734C39.6886 14.7413 40.3535 13.1347 40.1961 10.7898C40.1902 10.6261 40.1902 10.4722 40.1873 10.3155Z" fill="#A6CE39"/>
<path d="M26 30H7" stroke="#A6CE39" stroke-width="4" stroke-miterlimit="10" stroke-linecap="round"/>
<path d="M24 21L2 21" stroke="#A6CE39" stroke-width="4" stroke-miterlimit="10" stroke-linecap="round"/>
<path d="M20 39H2" stroke="#A6CE39" stroke-width="4" stroke-miterlimit="10" stroke-linecap="round"/>
<path d="M26 47H12" stroke="#A6CE39" stroke-width="4" stroke-miterlimit="10" stroke-linecap="round"/>
</svg>
