<svg width="177" height="96" viewBox="0 0 177 96" fill="none" xmlns="http://www.w3.org/2000/svg">
<g clip-path="url(#clip0_711_2274)">
<path d="M170.445 10.2251C169.366 10.3489 168.273 10.1711 167.289 9.7114C166.304 9.25165 165.466 8.5279 164.867 7.62033C160.159 1.63285 154.51 1.50322 148.991 7.00745C145.26 10.7319 145.26 10.7319 141.765 6.74815C137.658 2.0336 131.985 1.79787 127.478 6.07632C126.499 6.94487 125.579 7.87807 124.724 8.86968C123.3 10.6376 122.17 10.3548 120.946 8.65754C120.179 7.59857 119.312 6.61577 118.357 5.72271C116.695 4.07358 114.466 3.12321 112.127 3.06624C109.789 3.00927 107.516 3.85002 105.776 5.41628C104.688 6.31369 103.687 7.31212 102.787 8.39824C101.139 10.4609 99.7508 10.7555 98.1973 8.29216C97.4588 7.20662 96.5714 6.23055 95.5612 5.39269C92.0306 2.25751 88.6883 2.36359 85.4049 5.65199L2.18898 89.017C1.44756 89.7596 0.729654 90.561 0 91.3743C0.623737 92.0697 1.27102 91.8104 1.81238 91.7632C6.42568 91.445 10.2976 91.8693 13.581 96.2421C16.6879 100.379 22.9959 99.6719 26.6677 95.7942C27.5621 94.8513 28.3741 93.8141 29.2097 92.8122C30.3866 91.4096 31.5634 91.4214 32.7403 92.8122C33.6583 93.873 34.5174 95.0045 35.5059 96.0063C36.82 97.4117 38.5443 98.3647 40.432 98.7288C42.3197 99.0929 44.2741 98.8496 46.0153 98.0336C47.9015 97.081 49.5198 95.671 50.7227 93.9319C53.0765 91.0207 53.6649 91.0207 55.9833 93.7905C61.8676 100.792 67.4342 100.744 73.3891 93.6608L73.9658 92.9655C75.3309 91.28 76.6019 91.4686 77.8965 93.0833C78.745 94.2096 79.669 95.2768 80.6621 96.2774C84.2515 99.719 87.8292 99.6955 91.2539 96.2774C119.075 68.4144 146.884 40.5554 174.682 12.7003C175.352 12.0402 175.988 11.333 177.035 10.2605C174.411 10.178 172.422 10.0365 170.445 10.2251ZM27.8799 86.919C26.3146 88.4866 24.9024 90.1957 23.4196 91.834C21.1718 94.3327 18.3708 94.4034 16.1818 91.94C14.9423 90.3583 13.5638 88.8909 12.0628 87.5555C10.6153 86.3769 12.3571 85.929 12.8396 85.4457C19.6183 78.5625 26.4559 71.7382 33.2816 64.9021L87.8998 10.2015C90.5242 7.5614 91.0067 7.58496 93.5488 10.5198C95.1846 12.4056 96.6557 14.4918 99.5037 15.2343C86.9819 27.7514 74.5895 40.1271 62.2207 52.5146C50.758 63.9945 39.3111 75.4627 27.8799 86.919ZM51.5583 85.7404C49.7106 87.5909 47.9689 89.5474 46.2507 91.504C43.5086 94.6156 40.9195 94.6273 38.2127 91.504C36.518 89.5356 35.0587 87.2491 32.1401 86.7894C32.1989 85.7286 33.0816 85.3043 33.6818 84.715C58.2625 60.0579 82.8629 35.4087 107.483 10.7673C111.19 7.0546 113.085 7.14887 116.556 11.227C117.992 12.9006 119.404 14.5861 121.935 15.2343C113.697 23.4848 105.67 31.476 97.6325 39.526C82.2627 54.9191 66.9046 70.3238 51.5583 85.7404ZM73.5421 86.1765C71.7651 87.9562 70.1527 89.8774 68.4581 91.7279C65.8572 94.5684 63.3975 94.5566 60.832 91.7279C57.1484 87.638 57.1484 87.638 53.6296 86.5183C55.3949 85.045 56.7953 84.0432 57.9957 82.841C81.9723 58.8518 105.937 34.8586 129.89 10.8616C133.597 7.14888 135.645 7.23138 138.976 11.2623C140.386 13.3083 142.468 14.7934 144.86 15.4583C143.802 16.1876 142.784 16.9746 141.812 17.8155C119.067 40.5554 96.3183 63.3266 73.5656 86.1293L73.5421 86.1765ZM164.808 15.2343C164.502 16.4955 162.854 17.4266 161.795 18.4992L88.9001 91.5747C86.0168 94.4623 85.5932 94.4741 82.8275 91.2447C81.1917 89.3471 79.7559 87.2255 76.5784 86.813C77.4728 85.8701 78.0142 85.2808 78.5673 84.7268C103.148 60.0933 127.737 35.4676 152.333 10.8498C156.005 7.16065 158.135 7.31389 161.43 11.2741C161.711 11.5648 161.959 11.8849 162.172 12.2288C162.854 13.4074 165.137 13.8436 164.808 15.1872V15.2343Z" fill="url(#paint0_linear_711_2274)"/>
</g>
<defs>
<linearGradient id="paint0_linear_711_2274" x1="-10.3796" y1="47.7575" x2="166.659" y2="47.7575" gradientUnits="userSpaceOnUse">
<stop offset="0.22" stop-color="#D1E29A"/>
<stop offset="0.45" stop-color="#ABDD96"/>
<stop offset="0.67" stop-color="#8FD993"/>
<stop offset="0.85" stop-color="#7ED791"/>
<stop offset="0.99" stop-color="#78D690"/>
</linearGradient>
<clipPath id="clip0_711_2274">
<rect width="177" height="96" fill="white"/>
</clipPath>
</defs>
</svg>
