<svg width="97" height="104" viewBox="0 0 97 104" fill="none" xmlns="http://www.w3.org/2000/svg">
<path d="M96.7571 2.57933C96.7571 0.392006 96.3338 0.0296462 93.7941 0.0296462C81.7772 0.0296462 69.7528 0.0296475 57.7396 0C56.2412 0 55.3947 0.471067 54.6755 1.57132C36.75 28.9063 18.8083 56.2379 0.850331 83.5663C0.30609 84.3132 0.0114434 85.1795 0 86.0666C0.044951 90.9386 -9.14029e-07 95.8074 0.0224746 100.679C0.0224746 102.692 0.445759 103.058 2.75699 103.058C8.83287 103.058 14.9162 103.058 20.9884 103.058C26.7983 103.058 32.6007 102.969 38.4107 103.104C40.4709 103.153 41.5385 102.511 42.5312 100.986C57.0154 78.8205 71.5408 56.6727 86.1075 34.5426C89.1042 29.9703 91.9623 25.3189 95.1876 20.8718C96.3315 19.297 96.888 17.4476 96.7796 15.5814C96.7122 11.2463 96.7683 6.91774 96.7571 2.57933ZM83.1632 5.84714C85.2908 3.34687 88.0928 2.55298 91.7788 3.39299C89.3364 6.68715 87.7669 10.3107 84.257 12.9823C77.8889 17.8346 71.7643 22.9438 65.5611 27.9674C59.0057 33.2776 53.9487 39.6551 48.9891 46.0853C42.1528 54.9795 36.2305 64.3976 29.1358 73.1403C26.6044 76.2903 23.8004 79.2639 20.7487 82.0345C19.2016 83.4444 17.5871 84.0472 15.4294 83.5597C15.3096 82.9437 15.8864 82.6176 16.2161 82.2157C24.5245 71.7929 31.9152 60.942 37.6615 49.2246C41.3662 41.6481 47.4009 35.4781 53.8289 29.5816C62.6168 21.5175 72.4611 14.4614 81.8146 6.92433C82.2996 6.60121 82.7509 6.24072 83.1632 5.84714ZM80.3088 20.852C77.4956 25.1344 74.615 29.4169 71.8805 33.7487C69.5235 37.5987 66.5205 41.1146 62.9727 44.178C55.8854 50.18 50.5887 57.4666 45.1908 64.6479C40.8717 70.3929 36.7624 76.25 32.2261 81.8698C31.1473 83.1875 30.0572 83.9682 28.1056 83.7277C26.9294 83.5762 25.697 83.698 24.4871 83.698C24.4421 83.5564 24.3335 83.3917 24.3785 83.3686C32.3573 75.6208 38.3432 66.6574 44.6064 57.8652C50.525 49.5705 56.4023 41.2396 63.8792 33.9134C68.8163 29.0874 74.6936 25.1476 80.3088 20.852ZM40.9766 28.7053C46.2209 20.6906 51.4652 12.7023 56.6758 4.65794C57.4474 3.46216 58.309 3.03063 59.8373 3.12616C61.9613 3.24146 64.1114 3.15251 66.8909 3.15251C56.9155 11.6482 49.4461 21.2935 40.647 30.0296C40.175 29.3872 40.7406 29.0512 40.9729 28.7053H40.9766ZM5.8324 82.2124C13.8437 69.9823 21.8712 57.7554 29.9149 45.5319C31.6268 42.9328 34.2227 40.9662 36.5115 38.8019C44.7113 31.0639 52.0046 22.6605 59.7362 14.5734C63.2611 10.9004 67.1081 7.46787 70.7717 3.8937C71.2511 3.42264 71.6744 3.13604 72.4498 3.14593C75.2068 3.18216 77.9788 3.14593 81.3576 3.14593C75.1432 8.01799 69.3707 12.5244 63.5982 17.0769C55.507 23.5005 47.6668 30.1152 41.2238 37.8829C38.1908 41.5247 35.6338 45.4552 33.6009 49.6002C27.7685 61.4987 19.9732 72.3694 11.3839 82.8416C11.1748 83.1392 10.8744 83.3788 10.5171 83.5327C10.1598 83.6866 9.76035 83.7485 9.3648 83.7112C8.02376 83.6552 6.67148 83.7112 5.33044 83.7112C4.97083 83.0293 5.54771 82.6439 5.8324 82.2124ZM3.55487 87.4303C3.55487 86.9033 3.83956 86.7089 4.41643 86.7188C5.59265 86.7386 6.76888 86.7188 8.3609 86.7188C6.59657 88.636 5.11318 90.2765 3.55487 92.0685V87.4303ZM12.9197 99.1147C12.9197 99.6616 12.8335 100.037 12.0693 100.027C9.71316 100.007 7.36073 100.027 5.00454 100.027C3.50618 100.027 4.2741 99.1543 4.45015 98.6667C5.91106 94.6577 8.492 91.2549 11.7322 88.1583C12.9534 86.9889 14.1521 86.4322 16.115 86.8736C13.9992 90.6853 12.906 94.8731 12.9197 99.1147ZM21.9473 100.027C21.2693 99.9976 20.5951 100.027 19.917 100.027C16.2985 100.027 16.276 100.027 16.5457 96.7594C16.7855 93.9495 17.7444 91.3207 18.9881 88.7315C19.696 87.2656 20.6325 86.3828 22.6066 86.7188C23.2773 86.7832 23.9535 86.7898 24.6257 86.7386C29.5216 86.7386 29.4954 86.7386 27.7535 90.8332C26.4986 93.7749 24.6369 96.4695 23.1423 99.319C23.0691 99.5414 22.9093 99.7342 22.6909 99.8637C22.4725 99.9931 22.2093 100.051 21.9473 100.027ZM36.961 100.047C33.9942 99.9778 31.0162 100.007 28.0532 100.047C26.8845 100.067 26.7758 99.7176 27.304 98.9237C29.604 95.2803 31.5219 91.4953 32.6794 87.4468C32.8629 86.8341 33.2338 86.788 33.8219 86.7287C38.3694 86.3268 38.3695 86.3169 38.3695 90.3061V93.518C38.3695 95.2441 38.3245 96.9604 38.3919 98.6865C38.4107 99.6253 38.2009 100.077 36.961 100.047ZM40.7631 81.2274C39.5869 83.3719 38.0286 84.2185 35.2266 83.5169C43.1942 73.585 49.9893 63.0107 58.7622 53.6816C54.4569 60.2414 50.1516 66.7957 45.8463 73.3445C44.1344 75.9634 42.2465 78.513 40.7631 81.2274ZM93.1498 17.2482C93.0775 17.7126 92.8754 18.154 92.5617 18.533C75.9348 43.8629 59.3017 69.1895 42.6623 94.5128C42.5087 94.7434 42.4637 95.0992 41.8232 95.1288V86.1555C41.8232 85.5988 42.1978 85.1475 42.4862 84.6863L92.3669 8.70647C92.5167 8.47587 92.6928 8.25517 93.1835 7.5634C93.1835 11.1409 93.206 14.1978 93.1498 17.2482Z" fill="#A6CE39"/>
</svg>
