<svg id="Camada_1" data-name="Camada 1" xmlns="http://www.w3.org/2000/svg" viewBox="0 0 258.4 313"><defs><style>.cls-1{fill:#a6ce39;}</style></defs><path class="cls-1" d="M813.12,234.83c0-6.64-1.13-7.74-7.91-7.74-32.08,0-64.18,0-96.25-.09-4,0-6.26,1.43-8.18,4.77Q629,356.24,557.09,480.68a14.37,14.37,0,0,0-2.27,7.59c.12,14.79,0,29.57.06,44.36,0,6.11,1.13,7.22,7.3,7.22,16.22,0,32.46,0,48.67,0,15.51,0,31-.27,46.51.14,5.5.15,8.35-1.8,11-6.43q58-100.93,116.33-201.7c8-13.88,15.63-28,24.24-41.5a27.25,27.25,0,0,0,4.25-16.06C813,261.14,813.15,248,813.12,234.83Zm-36.29,9.92c5.68-7.59,13.16-10,23-7.45-6.52,10-10.71,21-20.08,29.11-17,14.73-33.35,30.24-49.91,45.49-17.5,16.12-31,35.48-44.24,55-18.25,27-34.06,55.59-53,82.13a227.6,227.6,0,0,1-22.39,27c-4.13,4.28-8.44,6.11-14.2,4.63-.32-1.87,1.22-2.86,2.1-4.08,22.18-31.64,41.91-64.58,57.25-100.15,9.89-23,26-41.73,43.16-59.63,23.46-24.48,49.74-45.9,74.71-68.78A27.34,27.34,0,0,0,776.83,244.75Zm-7.62,45.55c-7.51,13-15.2,26-22.5,39.15a132.19,132.19,0,0,1-23.78,31.66c-18.92,18.22-33.06,40.34-47.47,62.14-11.53,17.44-22.5,35.22-34.61,52.28-2.88,4-5.79,6.37-11,5.64-3.14-.46-6.43-.09-9.66-.09-.12-.43-.41-.93-.29-1,21.3-23.52,37.28-50.73,54-77.42,15.8-25.18,31.49-50.47,51.45-72.71C738.53,315.3,754.22,303.34,769.21,290.3Zm-105,23.84c14-24.33,28-48.58,41.91-73,2.06-3.63,4.36-4.94,8.44-4.65,5.67.35,11.41.08,18.83.08-26.63,25.79-46.57,55.07-70.06,81.59C662.07,316.21,663.58,315.19,664.2,314.14ZM570.39,476.57q32.08-55.69,64.29-111.35c4.57-7.89,11.5-13.86,17.61-20.43,21.89-23.49,41.36-49,62-73.55,9.41-11.15,19.68-21.57,29.46-32.42,1.28-1.43,2.41-2.3,4.48-2.27,7.36.11,14.76,0,23.78,0-16.59,14.79-32,28.47-47.41,42.29C703,298.34,682.07,318.42,664.87,342a182.56,182.56,0,0,0-20.35,35.57c-15.57,36.12-36.38,69.12-59.31,100.91a5.63,5.63,0,0,1-5.39,2.64c-3.58-.17-7.19,0-10.77,0C568.09,479.05,569.63,477.88,570.39,476.57Zm-6.08,15.84c0-1.6.76-2.19,2.3-2.16,3.14.06,6.28,0,10.53,0-4.71,5.82-8.67,10.8-12.83,16.24Zm25,35.47c0,1.66-.23,2.8-2.27,2.77-6.29-.06-12.57,0-18.86,0-4,0-1.95-2.65-1.48-4.13,3.9-12.17,10.79-22.5,19.44-31.9,3.26-3.55,6.46-5.24,11.7-3.9A84.17,84.17,0,0,0,589.31,527.88Zm24.1,2.77c-1.81-.09-3.61,0-5.42,0-9.66,0-9.72,0-9-9.92.64-8.53,3.2-16.51,6.52-24.37,1.89-4.45,4.39-7.13,9.66-6.11a27.66,27.66,0,0,0,5.39.06c13.07,0,13,0,8.35,12.43-3.35,8.93-8.32,17.11-12.31,25.76A3,3,0,0,1,613.41,530.65Zm40.08.06c-7.92-.21-15.87-.12-23.78,0-3.12.06-3.41-1-2-3.41,6.14-11.06,11.26-22.55,14.35-34.84.49-1.86,1.48-2,3.05-2.18,12.14-1.22,12.14-1.25,12.14,10.86v9.75c0,5.24-.12,10.45.06,15.69C657.36,529.43,656.8,530.8,653.49,530.71Zm10.15-57.13c-3.14,6.51-7.3,9.08-14.78,6.95,21.27-30.15,39.41-62.25,62.83-90.57q-17.24,29.87-34.48,59.69C672.64,457.6,667.6,465.34,663.64,473.58ZM803.49,279.36a8.61,8.61,0,0,1-1.57,3.9Q735.34,398.6,668.71,513.91c-.41.7-.53,1.78-2.24,1.87V488.54c0-1.69,1-3.06,1.77-4.46L801.4,253.43c.4-.7.87-1.37,2.18-3.47C803.58,260.82,803.64,270.1,803.49,279.36Z" transform="translate(-554.82 -227)"/></svg>