<svg width="98" height="96" viewBox="0 0 98 96" fill="none" xmlns="http://www.w3.org/2000/svg">
<path d="M97.9539 2.40155C97.9539 0.364987 97.5297 0.0276029 94.9845 0.0276029C82.9419 0.0276029 70.8918 0.027604 58.8529 0C57.3513 0 56.5029 0.438598 55.7822 1.46301C37.8184 26.9139 19.8383 52.3617 1.8419 77.8065C1.29649 78.5019 1.00121 79.3086 0.989746 80.1344C1.03479 84.6707 0.989745 89.2039 1.01227 93.7402C1.01227 95.6142 1.43646 95.9546 3.75264 95.9546C9.84152 95.9546 15.9379 95.9546 22.023 95.9546C27.8454 95.9546 33.6602 95.8718 39.4826 95.9975C41.5473 96.0436 42.6171 95.4455 43.6119 94.0254C58.1271 73.3878 72.6836 52.7666 87.2814 32.1617C90.2846 27.9046 93.1489 23.5738 96.381 19.4332C97.5273 17.967 98.0851 16.245 97.9764 14.5074C97.9088 10.4711 97.9651 6.44094 97.9539 2.40155ZM84.3309 5.44412C86.4631 3.11619 89.271 2.37701 92.9649 3.15913C90.5173 6.22624 88.9444 9.60006 85.427 12.0875C79.0453 16.6053 72.9076 21.3624 66.6911 26.0398C60.1217 30.984 55.0539 36.9219 50.0837 42.9089C43.2328 51.1901 37.2978 59.959 30.1878 68.0991C27.651 71.032 24.841 73.8007 21.7828 76.3803C20.2324 77.693 18.6145 78.2543 16.4522 77.8004C16.3321 77.2268 16.9102 76.9232 17.2405 76.549C25.5668 66.8446 32.9733 56.7416 38.7318 45.8319C42.4444 38.7775 48.492 33.0328 54.9338 27.5427C63.7405 20.0344 73.6059 13.4646 82.9794 6.44707C83.4655 6.14622 83.9178 5.81058 84.3309 5.44412ZM81.4704 19.4148C78.6512 23.4021 75.7644 27.3893 73.024 31.4226C70.662 35.0072 67.6526 38.2808 64.0971 41.133C56.9947 46.7213 51.6866 53.5058 46.2772 60.1921C41.9489 65.5411 37.8309 70.9945 33.2848 76.2269C32.2037 77.4538 31.1113 78.1807 29.1555 77.9568C27.9768 77.8157 26.7417 77.9292 25.5292 77.9292C25.4842 77.7973 25.3753 77.6439 25.4204 77.6225C33.4162 70.4086 39.415 62.063 45.6916 53.8769C51.6228 46.1539 57.5127 38.3972 65.0056 31.5759C69.9533 27.0826 75.8432 23.4143 81.4704 19.4148ZM42.054 26.7268C47.3096 19.2645 52.5651 11.8268 57.7868 4.3369C58.5601 3.22353 59.4235 2.82175 60.9551 2.91069C63.0836 3.01804 65.2383 2.93523 68.0238 2.93523C58.027 10.8453 50.5417 19.8258 41.7237 27.9598C41.2507 27.3617 41.8175 27.0489 42.0503 26.7268H42.054ZM6.83463 76.5459C14.863 65.1588 22.9077 53.7747 30.9687 42.3936C32.6842 39.9737 35.2857 38.1426 37.5793 36.1275C45.7967 28.9229 53.1056 21.0987 60.8537 13.5689C64.3862 10.1491 68.2415 6.95315 71.9128 3.62533C72.3933 3.18673 72.8175 2.91989 73.5946 2.92909C76.3575 2.96283 79.1354 2.92909 82.5215 2.92909C76.2937 7.46535 70.5089 11.6612 64.724 15.8999C56.6155 21.8808 48.7586 28.0395 42.3018 35.2718C39.2623 38.6626 36.6998 42.3222 34.6625 46.1815C28.8177 57.2599 21.0057 67.3814 12.398 77.1317C12.1885 77.4089 11.8874 77.632 11.5293 77.7753C11.1713 77.9185 10.771 77.9761 10.3746 77.9415C9.03068 77.8893 7.6755 77.9415 6.33159 77.9415C5.97121 77.3066 6.54933 76.9477 6.83463 76.5459ZM4.55223 81.4042C4.55223 80.9135 4.83752 80.7325 5.41563 80.7417C6.59436 80.7601 7.77311 80.7417 9.36853 80.7417C7.60043 82.5268 6.11386 84.0542 4.55223 85.7227V81.4042ZM13.9371 92.2833C13.9371 92.7924 13.8507 93.1421 13.0849 93.1329C10.7237 93.1145 8.36622 93.1329 6.005 93.1329C4.50342 93.1329 5.27299 92.3201 5.44942 91.8661C6.91346 88.1335 9.49992 84.9651 12.7471 82.0821C13.9709 80.9932 15.1721 80.4749 17.1392 80.8859C15.0189 84.4349 13.9234 88.334 13.9371 92.2833ZM22.984 93.1329C22.3046 93.1053 21.6289 93.1329 20.9494 93.1329C17.3231 93.1329 17.3006 93.1329 17.5709 90.0903C17.8111 87.474 18.7721 85.0265 20.0184 82.6157C20.7279 81.2509 21.6664 80.4289 23.6447 80.7417C24.3169 80.8017 24.9945 80.8078 25.6681 80.7601C30.5745 80.7601 30.5482 80.7601 28.8026 84.5725C27.5451 87.3115 25.6794 89.8204 24.1815 92.4734C24.1082 92.6806 23.9481 92.8601 23.7292 92.9806C23.5103 93.1011 23.2466 93.155 22.984 93.1329ZM38.0298 93.1513C35.0567 93.0869 32.0723 93.1145 29.103 93.1513C27.9317 93.1697 27.8229 92.8446 28.3522 92.1054C30.6571 88.7132 32.5791 85.189 33.7391 81.4196C33.923 80.8491 34.2947 80.8061 34.884 80.7509C39.4413 80.3767 39.4413 80.3675 39.4413 84.0818V87.0723C39.4413 88.6794 39.3963 90.2774 39.4638 91.8846C39.4826 92.7587 39.2724 93.1789 38.0298 93.1513ZM41.8401 75.6289C40.6613 77.6255 39.0997 78.4138 36.2917 77.7605C44.2764 68.5132 51.086 58.6677 59.8777 49.9817C55.5632 56.0893 51.2487 62.1918 46.9342 68.2893C45.2186 70.7276 43.3266 73.1016 41.8401 75.6289ZM94.3388 16.0594C94.2664 16.4918 94.0639 16.9028 93.7495 17.2556C77.087 40.8396 60.4183 64.4206 43.7433 87.9985C43.5894 88.2132 43.5443 88.5445 42.9024 88.5721V80.2173C42.9024 79.6989 43.2778 79.2787 43.5669 78.8493L93.5543 8.10638C93.7044 7.89168 93.8809 7.68619 94.3726 7.04209C94.3726 10.373 94.3952 13.2192 94.3388 16.0594Z" fill="url(#paint0_linear_711_2241)"/>
<defs>
<linearGradient id="paint0_linear_711_2241" x1="-4.69739" y1="44.7392" x2="92.3043" y2="44.7392" gradientUnits="userSpaceOnUse">
<stop offset="0.22" stop-color="#D1E29A"/>
<stop offset="0.45" stop-color="#ABDD96"/>
<stop offset="0.67" stop-color="#8FD993"/>
<stop offset="0.85" stop-color="#7ED791"/>
<stop offset="0.99" stop-color="#78D690"/>
</linearGradient>
</defs>
</svg>
