<svg id="Camada_1" data-name="Camada 1" xmlns="http://www.w3.org/2000/svg" xmlns:xlink="http://www.w3.org/1999/xlink" viewBox="0 0 81.02 99.95"><defs><style>.cls-1,.cls-3{fill:none;}.cls-2{clip-path:url(#clip-path);}.cls-3{stroke:#a6ce39;stroke-width:5px;}.cls-4{fill:#a6ce39;}</style><clipPath id="clip-path" transform="translate(-27.87 -2.19)"><rect class="cls-1" x="27.87" y="2.19" width="81.01" height="99.95"/></clipPath></defs><g class="cls-2"><path class="cls-3" d="M78.31,14.11l-1,2.28A22.11,22.11,0,0,0,65.5,15M48.61,98.72a144.84,144.84,0,0,0,19.73.92h0l2.16,0h0c7.9,0,15.61-.28,23.16-1.76a26.21,26.21,0,0,0,9.7-3.51,5.66,5.66,0,0,0,2.76-3.57h0a11.44,11.44,0,0,0-.29-6,10.9,10.9,0,0,0-3.58-4.9h0c-3.61-3-7.9-5-12.56-7-1-.44-2.06-.82-3.18-1.23l-1-.36a36.51,36.51,0,0,1-4.55-2h0a9,9,0,0,1-3.52-3.11,6.58,6.58,0,0,1-.94-2.66c-1,0-2.1,0-3.16,0h0a8.93,8.93,0,0,1-6-2.53,8.27,8.27,0,0,1,0-11.94,8.9,8.9,0,0,1,6-2.48c.83,0,1.74,0,2.61,0h1.6a9,9,0,0,1,4.72,1.18c.78-.18,1.56-.34,2.34-.49,2.71-5.87,3.81-11.78,2.6-17.94h0c-1.18-6-4.21-10.43-10-13M48.61,98.72a43.1,43.1,0,0,1-12.3-3h0m12.3,3-12.3-3m0,0c-3-1.34-4.86-2.85-5.53-5.16m5.53,5.16-5.53-5.16M57.13,68.34l.12.38A13.54,13.54,0,0,1,54,69.86a84.66,84.66,0,0,0-12.71,6Zm0,0h0m0,0h0m0,0L49.6,39m0,0c-.87-5.85-.48-11.21,2.55-16h0m0,0,0,0c3-4.72,7.44-7.27,13.35-8M30.78,90.51a8.6,8.6,0,0,1,2.31-8.92,33.45,33.45,0,0,1,8.23-5.75M78.47,63.57h0Z" transform="translate(-27.87 -2.19)"/><path class="cls-4" d="M32.25,42.15v-5a5,5,0,0,1,2.55-4.55,1.3,1.3,0,0,0,.46-.44,1.14,1.14,0,0,0,.15-.6c1-14.69,12.8-26.86,28-29,17.78-2.54,34.49,9,37.47,25.92a14.36,14.36,0,0,1,.24,1.6,3.61,3.61,0,0,0,1.64,3.26,4.21,4.21,0,0,1,1.7,3.84c0,3.36,0,6.72,0,10.09a5.55,5.55,0,0,1-7.92,4.89c-.45-.18-.77-.38-1.31,0A30.17,30.17,0,0,1,81.78,56.5a1.75,1.75,0,0,0-1.43.67,2.79,2.79,0,0,1-1,.82,3,3,0,0,1-1.32.27c-1.48,0-3,0-4.44,0a3.26,3.26,0,0,1-2.2-.84,3,3,0,0,1-1-2.06,3,3,0,0,1,2.78-3.26,30.33,30.33,0,0,1,5.22,0,2,2,0,0,1,1.44.58,2.35,2.35,0,0,0,2.51.65,28.3,28.3,0,0,0,10.55-3.43c.61-.35.91-.66.59-1.36a2.94,2.94,0,0,1-.11-1.18V37.14a4.92,4.92,0,0,1,2.48-4.47,1,1,0,0,0,.5-1.07C95.51,19.91,85.63,9.45,73.55,7.51,58.22,5,44.43,13.81,41,28.21c-.14.6-.2,1.21-.35,1.81-.32,1.36-.28,2.45,1.19,3.38A4,4,0,0,1,43.42,37c0,3.51,0,7,0,10.52a5.3,5.3,0,0,1-5.56,5.15,5.53,5.53,0,0,1-2.13-.37,5.36,5.36,0,0,1-1.82-1.13,5.26,5.26,0,0,1-1.22-1.71,5.07,5.07,0,0,1-.43-2C32.22,45.62,32.25,43.89,32.25,42.15Z" transform="translate(-27.87 -2.19)"/></g></svg>